{"title":"The.Last.Song.2010.DVDRip.X264.SDTeam","uid":5704224,"size":505644960,"categoryP":"video","categoryS":"movies","magnet":"?xt=urn:btih:5aca3f05890423b9f1a80d591fcc7e78605e79b2&amp;dn=The.Last.Song.2010.DVDRip.X264.SDTeam&amp;tr=udp%3A%2F%2Ftracker.openbittorrent.com%3A80&amp;tr=udp%3A%2F%2Fopen.demonii.com%3A1337&amp;tr=udp%3A%2F%2Ftracker.coppersurfer.tk%3A6969&amp;tr=udp%3A%2F%2Fexodus.desync.com%3A6969","seeders":0,"leechers":1,"uploader":".BONE.","files":38,"time":1279636882,"description":"The.Last.Song.2010.DVDRip.X264.SDTeam(https://www.scenedemon.org)\nLanguage.....: English -( GREETZ TO THE GREATZ:BG UnDeaD VOS WICCY MR A )\n\nA drama centered on a rebellious girl who is sent to a Southern beach town\nfor the summer to stay with her father. Through their mutual love of music,\nthe estranged duo learn to reconnect\n\nThe Last Song 2010 DVDRip.X264.SDTeam &lt;a href=&quot;\nhttp://www.imdb.com/title/tt1294226&quot; rel=&quot;nofollow&quot; target=&quot;_NEW&quot;&gt;\nhttp://www.imdb.com/title/tt1294226&lt;/a&gt;\n\nFormat : Matroska\nFile size : 482 MiB\nDuration : 1h 47mn\nOverall bit rate : 627 Kbps\nEncoded date : UTC 2010-07-20 07:00:07\n\nVideo\nID : 1\nFormat : AVC\nFormat/Info : Advanced Video Codec\nFormat profile : &lt;a class=&quot;__cf_email__&quot; href=&quot;/cdn-cgi/l/email-protection&quot; data-cfemail=&quot;551d3c323d1519677b64&quot;&gt;[email&amp;#160;protected]&lt;/a&gt;&lt;script cf-hash='f9e31' type=&quot;text/javascript&quot;&gt;\n/* &lt;![CDATA[ */!function(){try{var t=&quot;currentScript&quot;in document?document.currentScript:function(){for(var t=document.getElementsByTagName(&quot;script&quot;),e=t.length;e--;)if(t[e].getAttribute(&quot;cf-hash&quot;))return t[e]}();if(t&amp;&amp;t.previousSibling){var e,r,n,i,c=t.previousSibling,a=c.getAttribute(&quot;data-cfemail&quot;);if(a){for(e=&quot;&quot;,r=parseInt(a.substr(0,2),16),n=2;a.length-n;n+=2)i=parseInt(a.substr(n,2),16)^r,e+=String.fromCharCode(i);e=document.createTextNode(e),c.parentNode.replaceChild(e,c)}}}catch(u){}}();/* ]]&gt; */&lt;/script&gt;\nFormat settings, CABAC : Yes\nFormat settings, ReFrames : 4 frames\nMuxing mode : Container profile=&lt;a class=&quot;__cf_email__&quot; href=&quot;/cdn-cgi/l/email-protection&quot; data-cfemail=&quot;8cd9e2e7e2e3fbe2ccbea2bd&quot;&gt;[email&amp;#160;protected]&lt;/a&gt;&lt;script cf-hash='f9e31' type=&quot;text/javascript&quot;&gt;\n/* &lt;![CDATA[ */!function(){try{var t=&quot;currentScript&quot;in document?document.currentScript:function(){for(var t=document.getElementsByTagName(&quot;script&quot;),e=t.length;e--;)if(t[e].getAttribute(&quot;cf-hash&quot;))return t[e]}();if(t&amp;&amp;t.previousSibling){var e,r,n,i,c=t.previousSibling,a=c.getAttribute(&quot;data-cfemail&quot;);if(a){for(e=&quot;&quot;,r=parseInt(a.substr(0,2),16),n=2;a.length-n;n+=2)i=parseInt(a.substr(n,2),16)^r,e+=String.fromCharCode(i);e=document.createTextNode(e),c.parentNode.replaceChild(e,c)}}}catch(u){}}();/* ]]&gt; */&lt;/script&gt;\nCodec ID : V_MPEG4/ISO/AVC\nDuration : 1h 47mn\nBit rate : 486 Kbps\nNominal bit rate : 500 Kbps\nWidth : 640 pixels\nHeight : 272 pixels\nDisplay aspect ratio : 2.35:1\nOriginal display aspect ratio : 2.35:1\nFrame rate : 20.000 fps\nOriginal frame rate : 43 690.668 fps\nResolution : 8 bits\nColorimetry : 4:2:0\nScan type : Progressive\nBits/(Pixel*Frame) : 0.140\nStream size : 374 MiB (78%)\nWriting library : x264 core 96 r1613 81e75e9\nAudio\nID : 2\nFormat : MPEG Audio\nFormat version : Version 1\nFormat profile : Layer 3\nFormat_Settings_Mode : Joint stereo\nFormat_Settings_ModeExtension : MS Stereo\nCodec ID : A_MPEG/L3\nCodec ID/Hint : MP3\nDuration : 1h 47mn\nBit rate mode : Constant\nBit rate : 128 Kbps\nChannel(s) : 2 channels\nSampling rate : 48.0 KHz\nStream size : 98.5 MiB (20%)\nWriting library : LAME3.97","torrent":{"xt":"urn:btih:5aca3f05890423b9f1a80d591fcc7e78605e79b2","amp;dn":"The.Last.Song.2010.DVDRip.X264.SDTeam","amp;tr":["udp%3A%2F%2Ftracker.openbittorrent.com%3A80","udp%3A%2F%2Fopen.demonii.com%3A1337","udp%3A%2F%2Ftracker.coppersurfer.tk%3A6969","udp%3A%2F%2Fexodus.desync.com%3A6969"],"infoHash":"5aca3f05890423b9f1a80d591fcc7e78605e79b2","infoHashBuffer":{"type":"Buffer","data":[90,202,63,5,137,4,35,185,241,168,13,89,31,204,126,120,96,94,121,178]},"announce":[],"urlList":[]}}